<svg width="40" height="36" fill="none" xmlns="http://www.w3.org/2000/svg"><path d="M37.756 11.437h-4.042L28.088.811a1.175 1.175 0 10-2.076 1.1l5.044 9.526H8.938l5.044-9.527a1.175 1.175 0 00-2.077-1.1L6.28 11.438H2.244A2.247 2.247 0 000 13.681v2.61c0 1.185.924 2.158 2.09 2.238l3.94 16.386c.127.528.6.9 1.143.9H32.82c.542 0 1.014-.372 1.142-.9l3.95-16.386A2.246 2.246 0 0040 16.291v-2.61a2.247 2.247 0 00-2.244-2.244zM2.35 13.787h35.3v2.399H2.35v-2.4zm31.628 11.035h-5.143l.785-6.287h5.874l-1.516 6.287zm-12.802 8.643v-6.294h4.998l-.786 6.294h-4.212zm-6.56 0l-.787-6.294h4.998v6.294h-4.212zm-10.11-14.93h5.875l.785 6.287H6.02l-1.512-6.287zm8.242 0h6.078v6.287h-5.292l-.786-6.287zm8.427 6.287v-6.287h6.076l-.785 6.287h-5.29zm-14.592 2.35h4.877l.787 6.293h-4.15l-1.514-6.294zm25.31 6.293h-4.139l.786-6.294h4.87l-1.517 6.294z" fill="#fff"/></svg>