<svg width="66" height="66" fill="none" xmlns="http://www.w3.org/2000/svg"><path d="M65.804 36.953c-.164-.327-.573-.491-.9-.573-1.883 0-18.088-.655-18.088-19.48 0-.572-.491-1.063-1.064-1.063-.573 0-1.064.491-1.064 1.064 0 18.824-16.206 19.48-18.006 19.48-.246 0-.491.081-.655.245-.164.082-.246.245-.328.327a1.214 1.214 0 000 1.064c.164.327.573.573.983.573h.081c1.883 0 18.006.655 18.006 19.48 0 .572.492 1.063 1.065 1.063.572 0 1.063-.49 1.063-1.064 0-18.742 16.124-19.479 18.006-19.479.41 0 .737-.246.983-.573a1.006 1.006 0 00-.082-1.064zM45.752 50.048c-2.374-7.775-8.185-11.13-12.768-12.604 4.583-1.473 10.394-4.829 12.768-12.604 2.373 7.775 8.184 11.131 12.768 12.604-4.584 1.473-10.395 4.83-12.768 12.604zM32.247 15.674c.573 0 1.064-.492 1.064-1.146 0-.573-.491-1.064-1.064-1.064-.982 0-9.822-.328-9.822-10.64 0-.573-.49-1.064-1.064-1.064-.573 0-1.064.49-1.064 1.064 0 10.312-8.839 10.64-9.821 10.64h-.082c-.573.082-.982.49-.982 1.064 0 .573.49 1.064 1.064 1.064 1.064 0 9.821.327 9.821 10.64 0 .573.491 1.064 1.064 1.064.491.082.982-.41.982-.982 0-10.313 8.84-10.64 9.822-10.64h.082zm-10.968 4.665c-1.31-3.11-3.683-4.83-5.892-5.811 2.373-.982 4.583-2.865 5.892-5.811 1.31 3.11 3.683 4.829 5.893 5.81-2.373.983-4.583 2.865-5.893 5.812zm1.556 30.038c-.982 0-9.822-.328-9.822-10.64 0-.573-.49-1.064-1.063-1.064s-1.064.49-1.064 1.064c0 10.312-8.84 10.64-9.822 10.64H.982C.41 50.459 0 50.867 0 51.44s.491 1.064 1.064 1.064c1.064 0 9.822.327 9.822 10.64 0 .573.49 1.064 1.064 1.064.49.163.982-.328.982-.982 0-10.313 8.839-10.64 9.821-10.64h.082c.573 0 1.064-.491 1.064-1.146 0-.573-.491-1.064-1.064-1.064zm-10.967 6.957c-1.392-3.11-3.683-4.83-5.893-5.811 2.373-.983 4.583-2.865 5.893-5.811 1.31 3.11 3.683 4.828 5.893 5.81-2.374.983-4.584 2.865-5.893 5.812z" fill="#E8616B"/></svg>