<svg width="85" height="85" fill="none" xmlns="http://www.w3.org/2000/svg"><circle cx="42.5" cy="42.5" r="42.5" fill="#FFF1F2"/><g clip-path="url(#clip0)"><path d="M15 72h5a2.985 2.985 0 002.22-1H47.3a7.992 7.992 0 004.16-1.166L70.2 58.426a3.73 3.73 0 001.121-5.343 3.753 3.753 0 00-4.244-1.407L60 54.029v-21.03h1.31a2 2 0 001.314-3.516L60 27.218V16a2 2 0 00-2-2h-5a2 2 0 00-2 2v3.448L43.3 12.8a2.008 2.008 0 00-2.6 0L21.373 29.486A2 2 0 0022.69 33H24v14h-1.184A3 3 0 0020 45h-5a3 3 0 00-3 3v21a3 3 0 003 3zm52.7-18.431a1.754 1.754 0 011.9.55.837.837 0 00.049.072 1.732 1.732 0 01-.491 2.525L50.42 68.126A6 6 0 0147.3 69H23V49h1.8a8.153 8.153 0 015.077 1.78A10.166 10.166 0 0036.2 53h5.23a4.019 4.019 0 013.416 1.919.808.808 0 00.033.066c.628.915.6 2.13-.07 3.015H38.72a10.022 10.022 0 00-5.548 1.68l-.73.49a1 1 0 101.116 1.66l.724-.486A8.01 8.01 0 0138.72 60h8.89a4.91 4.91 0 001.586-.261l18.504-6.17zM49 57.699l-.444.149a2.933 2.933 0 01-.946.152h-.545a4.813 4.813 0 00-.434-3.983.909.909 0 00-.054-.1A6.028 6.028 0 0041.432 51H36.2a8.039 8.039 0 01-1.2-.1V49a7 7 0 1114 0v8.7zM53 16h5v9.493l-5-4.317V16zM28 33a1 1 0 100-2h-5.317L42 14.318l9.3 8.03L61.31 31H48a1 1 0 100 2h10v21.7l-7 2.333V49a9 9 0 10-18 0v1.336a8.07 8.07 0 01-1.875-1.117A10.167 10.167 0 0026 47.08V33h2zM14 48a1 1 0 011-1h5a1 1 0 011 1v21a1 1 0 01-1 1h-5a1 1 0 01-1-1V48z" fill="#043353"/><path d="M24 17a1 1 0 001-1v-2a1 1 0 10-2 0v2a1 1 0 001 1zm0 2a1 1 0 00-1 1v2a1 1 0 102 0v-2a1 1 0 00-1-1zm2 0h2a1 1 0 100-2h-2a1 1 0 000 2zm-6 0h2a1 1 0 100-2h-2a1 1 0 100 2zm47.5 22.5a1 1 0 00.707-.293l1.5-1.5a1 1 0 00-1.414-1.414l-1.5 1.5A1 1 0 0067.5 41.5zm-3.707 1.292l-1.5 1.5a1 1 0 101.414 1.414l1.5-1.5a1 1 0 00-1.414-1.414zm4.5 2.914a1 1 0 001.414-1.414l-1.5-1.5a1 1 0 00-1.414 1.414l1.5 1.5zm-6-7.413a1 1 0 000 1.414l1.5 1.5a1 1 0 001.414-1.414l-1.5-1.5a1 1 0 00-1.414 0zM32 33a5.006 5.006 0 015 5 1 1 0 102 0 5.006 5.006 0 015-5 1 1 0 100-2 5.006 5.006 0 01-5-5 1 1 0 10-2 0 5.006 5.006 0 01-5 5 1 1 0 100 2zm6-3.4a7.066 7.066 0 002.4 2.4 7.066 7.066 0 00-2.4 2.4 7.066 7.066 0 00-2.4-2.4 7.066 7.066 0 002.4-2.4z" fill="#E8616B"/></g><defs><clipPath id="clip0"><path fill="#fff" transform="translate(12 12)" d="M0 0h60v60H0z"/></clipPath></defs></svg>