<svg width="85" height="85" fill="none" xmlns="http://www.w3.org/2000/svg"><circle cx="42.5" cy="42.5" r="42.5" fill="#FFF1F2"/><g clip-path="url(#clip0)"><path d="M63 12H53a1 1 0 00-1 1v3a1 1 0 00.8.98l.957.192A5.489 5.489 0 0156 18.192v.2a5.724 5.724 0 01-2.555 4.773l1.11 1.664a7.712 7.712 0 003.178-4.44c.123.274.224.558.3.85A1 1 0 0059 22h2v2.853l-2.708 9.026 1.916.575L62.744 26h4.421L69 36.09V59a3 3 0 01-3 3h-2.583v2H66a5.006 5.006 0 005-5V36c0-.06-.006-.12-.017-.18L69 24.914V22h2a1 1 0 001-1 9.01 9.01 0 00-9-9zm4 12h-4v-2h4v2zm1-4h-8.263a7.549 7.549 0 00-5.584-4.79L54 15.18V14h9a7.012 7.012 0 016.93 6H68z" fill="#043353"/><path d="M17 64h7v-2h-7a3 3 0 01-3-3V44.681c0-1.022.143-2.04.424-3.022l1.538-5.384a.99.99 0 00-.014-.59l-1.756-5.269a3.76 3.76 0 011.161-4.074L19.362 23h9.276l2.9 2.418 1.28-1.536L30 21.53V19a1 1 0 00-.293-.707L28 16.586V13a1 1 0 00-1-1h-6a1 1 0 00-1 1v3.586l-1.707 1.707A1 1 0 0018 19v2.53l-3.928 3.275A5.755 5.755 0 0012.3 31.05l1.657 4.974L12.5 41.11a12.979 12.979 0 00-.5 3.572V59a5.006 5.006 0 005 5zm5-50h4v2h-4v-2zm-2 5.414L21.414 18h5.172L28 19.414V21h-8v-1.586z" fill="#E8616B"/><path d="M30 29c0-2.243-2.636-4-6-4s-6 1.757-6 4c0 2.243 2.636 4 6 4s6-1.757 6-4zm-10 0c0-.944 1.71-2 4-2 2.289 0 4 1.056 4 2s-1.711 2-4 2c-2.29 0-4-1.056-4-2z" fill="#043353"/><path d="M22.9 45.168l.672-1.883-6.236-2.227A.999.999 0 0016 42v12a5.006 5.006 0 005 5h2v-2h-2a3 3 0 01-3-3V43.42l4.9 1.748z" fill="#E8616B"/><path d="M49.822 44.405a14.625 14.625 0 012.417 12.815 2.966 2.966 0 005.652 1.8 19.635 19.635 0 00-3.1-18.7l-.4-.51a3.21 3.21 0 00-5.078 3.927l.509.668zm.86-2.895a1.21 1.21 0 012.13-.473l.4.511A17.642 17.642 0 0156 58.353a1 1 0 01-1.684.263.962.962 0 01-.157-.847 16.637 16.637 0 00-2.75-14.576l-.515-.676a1.207 1.207 0 01-.212-1.007z" fill="#043353"/><path d="M30.168 71.555A1 1 0 0031 72h24a.999.999 0 00.78-.375l2.5-3.126a26.098 26.098 0 00-4.254-36.82L50 28.513V25a1 1 0 00-1-1h-1v-4a2 2 0 00-2-2h-8a2 2 0 00-2 2v4h-1a1 1 0 00-1 1v3.63l-1.334 1.557c-9.965 11.689-10.984 28.564-2.498 41.368zM38 20h8v4h-8v-4zm-3.816 11.488l1.575-1.837A.999.999 0 0036 29v-3h12v2H38v2h10.654l4.137 3.25a24.1 24.1 0 013.93 34L54.52 70H31.54a32.435 32.435 0 012.644-38.512z" fill="#043353"/><path d="M40.5 64a11.48 11.48 0 009.586-5.153.998.998 0 00.153-.72c-1.212-7.199-3.934-12.851-8.093-16.799a1 1 0 00-.6-.272A10.28 10.28 0 0040.5 41C34.149 41 29 46.149 29 52.5S34.149 64 40.5 64zm0-21c.175 0 .349.007.52.018 3.623 3.564 6.035 8.621 7.178 15.044A9.5 9.5 0 1140.5 43z" fill="#E8616B"/></g><defs><clipPath id="clip0"><path fill="#fff" transform="translate(12 12)" d="M0 0h60v60H0z"/></clipPath></defs></svg>