<svg width="85" height="85" fill="none" xmlns="http://www.w3.org/2000/svg"><circle cx="42.5" cy="42.5" r="42.5" fill="#FFF1F2"/><path d="M24 51.2a.8.8 0 100-1.6.8.8 0 000 1.6zm-.8 12a.8.8 0 100-1.6.8.8 0 000 1.6zm24-42.4a.8.8 0 100-1.6.8.8 0 000 1.6zm-8.356 41.156a.8.8 0 00-1.131 0l-.913.913-.912-.913a.8.8 0 10-1.132 1.131l.913.913-.913.912a.8.8 0 101.132 1.131l.912-.912.912.912a.798.798 0 001.132 0 .8.8 0 000-1.13L37.93 64l.913-.913a.8.8 0 000-1.131z" fill="#E8616B"/><path d="M46.4 32c0-7.94-6.46-14.4-14.4-14.4S17.6 24.06 17.6 32 24.06 46.4 32 46.4 46.4 39.94 46.4 32zm-27.2 0c0-7.058 5.742-12.8 12.8-12.8 7.058 0 12.8 5.742 12.8 12.8 0 7.057-5.742 12.8-12.8 12.8-7.058 0-12.8-5.743-12.8-12.8zm34.4 8.8c-7.058 0-12.8 5.742-12.8 12.8 0 7.058 5.742 12.8 12.8 12.8 7.058 0 12.8-5.742 12.8-12.8 0-7.058-5.742-12.8-12.8-12.8zm0 24c-6.176 0-11.2-5.024-11.2-11.2 0-6.176 5.024-11.2 11.2-11.2 6.176 0 11.2 5.024 11.2 11.2 0 6.176-5.024 11.2-11.2 11.2z" fill="#043353"/><path d="M27.528 33.61c.08-.313.255-.581.487-.822.002.298.038.614.114.952.516 2.313 2.627 5.428 4.808 5.428.163 0 .326-.017.49-.053 2.346-.525 3.064-4.632 2.509-7.119a4.477 4.477 0 00-.302-.908c.313.118.584.286.79.536 1.462 1.773.346 6.435-.208 8.082a.8.8 0 101.516.51c.215-.635 1.897-5.879.39-8.875 1.47 1.206 1.661 3.333 1.666 3.378a.8.8 0 001.595-.115c-.008-.119-.23-2.928-2.336-4.575-.705-.552-1.53-.897-2.46-1.048 1.89-1.963 2.157-4.481 1.954-5.796a.8.8 0 10-1.581.244c.004.03.359 2.556-1.575 4.5.181-1.102.165-2.705-.482-4.936a.8.8 0 00-1.538.445c.592 2.04.578 3.418.428 4.28a3.189 3.189 0 00-3.155-1.097 3.182 3.182 0 00-2.004 1.408 3.181 3.181 0 00-.386.925c-.503-.716-1.1-1.958-1.433-4.054a.8.8 0 10-1.58.25c.364 2.3 1.033 3.759 1.667 4.68-2.551-.916-3.308-3.29-3.345-3.412a.8.8 0 00-1.534.455c.375 1.275 1.688 3.44 4.233 4.413-.777.533-1.377 1.197-1.78 1.996-1.205 2.386-.211 5.023-.168 5.134a.8.8 0 101.492-.577c-.008-.02-.76-2.022.072-3.765-.092 3.353 3.662 7.385 4.127 7.87a.798.798 0 001.131.023.8.8 0 00.024-1.131c-1.202-1.253-4.195-4.993-3.626-7.225zm5.55 3.943c-1.023.234-2.929-2.104-3.388-4.162-.225-1.01.09-1.293.226-1.413.361-.324 1.063-.514 1.768-.671.491-.11.989-.205 1.402-.205.18 0 .343.018.484.06.173.052.58.173.805 1.183.459 2.058-.268 4.978-1.297 5.208zm-3.094-8.666a1.6 1.6 0 012.913.509c.009.04.01.08.017.12a8.855 8.855 0 00-1.579.229 8.82 8.82 0 00-1.524.464c-.012-.04-.029-.076-.038-.116a1.588 1.588 0 01.211-1.206zM58.396 45.98l-1.834 1.08a4.82 4.82 0 00-1.058-.418 4.847 4.847 0 00-1.13-.149l-1.079-1.833a.799.799 0 10-1.378.812l.765 1.299a4.77 4.77 0 00-3.027 3.315c-.055.207-.078.422-.104.637a6.991 6.991 0 00-2.748 3.997c-.453 1.748-.24 3.56.596 5.1.847 1.56 2.231 2.655 3.896 3.086.505.13 1.018.196 1.528.196 1.171 0 2.333-.34 3.376-1.005 1.479-.94 2.543-2.422 2.995-4.17a7.007 7.007 0 00-.463-4.816c.083-.2.161-.404.217-.62a4.798 4.798 0 00-1.04-4.366l1.3-.766a.8.8 0 00-.812-1.38zm-.75 11.546c-.35 1.354-1.17 2.499-2.306 3.222-1.119.71-2.411.928-3.644.61a4.509 4.509 0 01-2.377-1.537 1.595 1.595 0 10-1.124-2.828 5.572 5.572 0 01.157-1.872c.35-1.355 1.17-2.5 2.306-3.222a4.688 4.688 0 012.52-.753c.376 0 .753.047 1.123.143 1.32.341 2.354 1.251 2.953 2.43a1.196 1.196 0 10.56 2.13 5.551 5.551 0 01-.168 1.677zm-2.944-7.786a6.087 6.087 0 00-3.218.049 3.173 3.173 0 013.618-1.598 3.2 3.2 0 012.391 3.158 6.07 6.07 0 00-2.79-1.61z" fill="#E8616B"/><path d="M51.764 53.112a1.2 1.2 0 10-.601 2.324 1.2 1.2 0 00.601-2.324zm2.884 3.225a1.6 1.6 0 10-.801 3.098 1.6 1.6 0 00.8-3.098zM56.8 39.2c4.852 0 8.8-3.948 8.8-8.8 0-4.853-3.948-8.8-8.8-8.8S48 25.547 48 30.4c0 4.852 3.947 8.8 8.8 8.8zm0-16c3.97 0 7.2 3.23 7.2 7.2s-3.23 7.2-7.2 7.2-7.2-3.23-7.2-7.2 3.23-7.2 7.2-7.2z" fill="#043353"/><path d="M52.8 29.6a.8.8 0 100 1.6h.8c0 .377.077.734.198 1.07l-.764.764a.8.8 0 101.132 1.131l.554-.554a3.17 3.17 0 002.08.789c.798 0 1.52-.304 2.08-.789l.554.555a.798.798 0 001.132 0 .8.8 0 000-1.132l-.764-.763A3.18 3.18 0 0060 31.2h.8a.8.8 0 100-1.6H60a3.16 3.16 0 00-.18-1.015l1.338-.67a.8.8 0 10-.716-1.43l-1.504.751A3.175 3.175 0 0056.8 26.4c-.825 0-1.57.322-2.138.836l-1.504-.752a.8.8 0 10-.716 1.431l1.338.67a3.16 3.16 0 00-.18 1.015h-.8zm2.4 0c0-.883.718-1.6 1.6-1.6.882 0 1.6.717 1.6 1.6v1.6c0 .882-.718 1.6-1.6 1.6-.882 0-1.6-.718-1.6-1.6v-1.6z" fill="#E8616B"/><path d="M36 56c0-2.648-2.153-4.8-4.8-4.8a4.805 4.805 0 00-4.8 4.8c0 2.646 2.153 4.8 4.8 4.8S36 58.645 36 56zm-4.8 3.2A3.203 3.203 0 0128 56c0-1.765 1.435-3.2 3.2-3.2 1.765 0 3.2 1.435 3.2 3.2 0 1.764-1.435 3.2-3.2 3.2z" fill="#043353"/></svg>