<svg width="85" height="85" fill="none" xmlns="http://www.w3.org/2000/svg"><circle cx="42.5" cy="42.5" r="42.5" fill="#FFF1F2"/><g clip-path="url(#clip0)"><path d="M58.452 37.161l-.042.002a6.54 6.54 0 00-4.797-5.579v-4.1h-3.871v-4.839a4.844 4.844 0 00-4.839-4.838 4.844 4.844 0 00-4.838 4.838v4.84h-3.871v4.1c-2.783.749-4.84 3.285-4.84 6.3 0 .19.01.384.026.573l2.725 30.895A2.89 2.89 0 0036.998 72h15.81a2.89 2.89 0 002.893-2.647l.467-5.302c.744.127 1.504.207 2.284.207C65.922 64.258 72 58.181 72 50.71s-6.077-13.55-13.548-13.55zm-6.775-5.806h-1.935v-1.936h1.935v1.936zm-7.742-1.936v1.936H42v-1.936h1.935zm1.936 0h1.935v1.936h-1.935v-1.936zM42 22.645c0-1.6 1.303-2.903 2.903-2.903s2.904 1.303 2.904 2.903v4.84H42v-4.84zm-1.935 6.774v1.936h-1.936v-1.936h1.936zm13.708 39.763a.963.963 0 01-.964.883H36.998a.963.963 0 01-.964-.883l-2.725-30.896a4.598 4.598 0 014.576-4.996h14.037c2.342 0 4.257 1.768 4.538 4.035a13.43 13.43 0 00-4.783 1.67v-3.769H38.13v32.903h13.548v-5.704c.815.474 1.678.867 2.589 1.165l-.493 5.592zm-6.424-26.214H42v1.935h4.23a13.294 13.294 0 00-.756 1.936H42v1.935h3.058a13.408 13.408 0 00-.155 1.936H42v1.935h3.058c.095.661.228 1.309.416 1.936H42v1.935h4.23c.322.678.693 1.326 1.119 1.936H42v1.935h5.806v-1.324a13.685 13.685 0 001.936 2.01v5.12h-9.677V37.162h9.677v3.186a13.663 13.663 0 00-2.393 2.62zm11.103 19.355c-6.404 0-11.613-5.21-11.613-11.613 0-6.404 5.209-11.613 11.613-11.613 6.403 0 11.612 5.21 11.612 11.613 0 6.404-5.209 11.613-11.612 11.613z" fill="#043353"/><path d="M64.258 53.613h2.903v-1.936h-2.903v-.899h2.281v-1.935h-2.595a5.815 5.815 0 00-1.621-2.45v-1.49a3.875 3.875 0 00-3.871-3.87 3.875 3.875 0 00-3.871 3.87v1.49a5.853 5.853 0 00-1.15 1.413h-3.69v1.936h2.991a5.842 5.842 0 00-.087.968v.967h-2.903v1.936h2.903v.968c0 .33.034.652.087.967h-2.99v1.936h3.689a5.805 5.805 0 005.02 2.903 5.806 5.806 0 005.021-2.903h3.69v-1.936h-2.99c.052-.315.086-.638.086-.967v-.968zm-5.806-4.839c-1.36 0-2.168-.506-2.6-.913a3.846 3.846 0 012.6-1.022c1.003 0 1.911.394 2.599 1.022-.431.407-1.239.913-2.6.913zm-1.936-3.87c0-1.068.868-1.936 1.936-1.936 1.067 0 1.935.868 1.935 1.935v.339a5.778 5.778 0 00-1.935-.339c-.68 0-1.33.124-1.936.339v-.339zm5.807 9.677c0 1.798-1.239 3.3-2.904 3.733v-3.733h-1.935v3.733c-1.665-.432-2.903-1.934-2.903-3.733V50.71c0-.424.085-.826.212-1.208.596.487 1.474.963 2.69 1.135v2.008h1.936v-2.007c1.218-.172 2.096-.648 2.691-1.135a3.8 3.8 0 01.213 1.207v3.87zM43.935 22.645h1.936v1.936h-1.936v-1.936zm-22.258-8.71c1.6 0 2.904 1.303 2.904 2.904h1.935A4.844 4.844 0 0021.677 12a4.844 4.844 0 00-4.838 4.839h1.935c0-1.6 1.303-2.903 2.903-2.903zm0 19.355a2.907 2.907 0 01-2.903-2.903H16.84a4.844 4.844 0 004.838 4.838 4.844 4.844 0 004.84-4.838H24.58c0 1.6-1.303 2.903-2.904 2.903zm-4.838-6.774a2.907 2.907 0 01-2.903-2.903c0-1.6 1.302-2.903 2.903-2.903v-1.936A4.844 4.844 0 0012 23.614a4.844 4.844 0 004.839 4.838v-1.936z" fill="#E8616B"/><path d="M24.275 20.66a38.617 38.617 0 0012.233 1.985h.653V20.71h-.653c-3.957 0-7.867-.635-11.62-1.887l-.613 1.837zm0 4.938l.612 1.836a36.69 36.69 0 0111.621-1.885h.653v-1.936h-.653a38.62 38.62 0 00-12.233 1.985zM20.71 24.58v1.936c1.6 0 2.903-1.302 2.903-2.903 0-1.6-1.303-2.903-2.903-2.903v1.935a.97.97 0 01.967.968.97.97 0 01-.967.968zM42 39.097h5.806v1.935H42v-1.935zm0 23.225h5.806v1.936H42v-1.936z" fill="#043353"/></g><defs><clipPath id="clip0"><path fill="#fff" transform="translate(12 12)" d="M0 0h60v60H0z"/></clipPath></defs></svg>