<svg width="21" height="21" fill="none" xmlns="http://www.w3.org/2000/svg"><path d="M20.065 9.613c-.863 0-8.63-.269-8.63-8.74 0-.47-.432-.873-.935-.873-.503 0-.935.403-.935.874 0 8.47-7.767 8.74-8.63 8.74H.863C.36 9.68 0 10.015 0 10.486c0 .47.432.874.935.874.935 0 8.63.269 8.63 8.739 0 .47.432.874.935.874.431.134.863-.269.863-.807 0-8.47 7.767-8.739 8.63-8.739h.072a.935.935 0 00.935-.941c0-.47-.431-.874-.935-.874zm-9.637 5.714c-1.223-2.554-3.236-3.966-5.178-4.773 2.086-.806 4.027-2.353 5.178-4.773 1.15 2.555 3.236 3.967 5.178 4.773-2.085.807-4.027 2.353-5.178 4.773z" fill="#E8616B"/></svg>